<svg xmlns="http://www.w3.org/2000/svg" viewBox="0 0 36 36" style="max-width:36px;max-height:36px"><path fill="#D99E82" d="M33.4 17.5c1 2.4 2.9 8 2.4 11.5 0 0-3-1.7-3.4-7.4-.4-4.7-1.2-7.4-1.2-7.4s1.5 1.5 2.2 3.3z"/><path fill="#C1694F" d="M10.3 22s1 2.3.7 8.2l-.2 3c-1.9 0-1.7 2-1.3 2h2.9c.7 0 1.9-3.4 2.2-8.1.3-4.8-4.3-5.2-4.3-5.2zm12-.4s.5 3.5 3.6 6.4c.2 1.2.7 4.2 1 5.2-2 0-1.4 2-.8 2h2.6c1 0 1.1-3.4.2-7.6-.9-4.3-6.7-6-6.7-6z"/><path fill="#D99E82" d="M32.2 15.7c-1.3-3.8-7.2-3.7-14-2.8-3 .4-3.6-4.5-3.6-5.3 0-3.6-3.3-5.5-6.5-4.2-.8.3-1.4 1.3-1.8 1.8-2 3-4.6 0-4.9 2.9-.3 3.4 1.7 4.5 5 4.8 2 .2 2.5 1 2.9 5 .1 1.5.7 5.7 3.4 7.1l2.3 8.5c-2.3.5-1.4 2.2-1.4 2.2h3.9c.8 0 .1-6-1-9.9 4.8 0 7.8-1.3 8.8-1.7 1 3 4.2 3.6 4.9 4.9.4.7 1.8 3.3 2 4.5-1.6.5-1.1 1.7-1 2h3.6c1 0-1.2-6.9-2.1-8.7-1.1-2 .8-7.4-.5-11.1z"/><path fill="#F4C7B5" d="m16.3 24.5.2 1.3c4.8 0 7.8-1.3 8.8-1.7l-.2-1.6c-3.3.6-4.5 2.2-8.8 2zM6.4 12.9c2 .2 2.5 1 2.9 5 .1 1.5.7 5.7 3.4 7.1-.7-2.8-2-12.4-6.3-12.1z"/><path fill="#272B2B" d="M2.5 8.3c-.1.8-.5 1.2-.9 1.2C1 9.3.2 8.4.2 7.6s.7-1 1.4-1c1 .1 1 .9.9 1.7z"/><path fill="#662113" d="M15.2 9.5c.3 2.5-1.2 2.9-2.4 2.9S9.8 11 10 8.6l.8-3.2c.4-1.3 1.2-1.7 2-1.3 1.6.9 2.1 3.8 2.4 5.4z"/><circle fill="#292F33" cx="8.1" cy="6.7" r=".9"/><circle fill="#C1694F" cx="3.1" cy="10.5" r=".5"/><circle fill="#C1694F" cx="3.7" cy="9.8" r=".3"/><circle fill="#C1694F" cx="4.1" cy="10.5" r=".3"/><path fill="#377700" d="M9.4 18.5c.9.1 2.6-.1 3.4-.3l9.1-2.6.4 1.4-9.5 2.9-2.9 1.3-.5-1.2c-.2-.7 0-1.5 0-1.5zm9.2.5 1.6-.5s1.5 4.4 1 7l-1.7.2s.1-1.5-.2-3.2c-.2-1.7-.7-3.5-.7-3.5z"/><path fill="#292F33" d="M8.4 14.2c1-.4 4.8-.4 7.4-2.3.5-.4 1.4.9 1 1.2-3.2 2-7 2.2-7.9 2.3-.5 0-1-1-.5-1.2z"/><path fill="#489C00" d="M18.2 12.9s.6 1.8-.1 2.7c-.8.8-2.2.9-2.2 2s.9 2.2 1.5 2c.6 0 3.9-.3 5-1.2s-.3-6-.3-6-1-.3-2.1 0l-1.8.5z"/><path fill="#377700" d="M20.7 16.9c-.5 0-1-.2-1-.7-.3-1.2-.5-3.2.5-3.9 1.3-1 8.6-4.4 9.3-4.6.6-.3.5-1 .9-2.1.2-.9 2-1 1.5.5-.4 1.5-.6 2.3-1.3 2.6l-9 4.4c-.5.3-.4 1.8-.2 2.8 0 .4-.3.8-.7 1z"/></svg>