<svg xmlns="http://www.w3.org/2000/svg" viewBox="0 0 36 36" role="presentation"><path fill="#BE1931" d="M36 11.5c0-3-3-7.5-18-7.5S0 8.5 0 11.5V12.3C0 14.8 2.2 16 5 16s5-1.1 5-3.8v-.5a56 56 0 0 1 16 0v.6c0 2.6 2.2 3.7 5 3.7s5-1.1 5-3.8v-.7z"/><path fill="#DD2E44" d="m35 23-4-7c-1.6-2.7-4-5-6-5V9a2 2 0 0 0-4 0v2h-6V9a2 2 0 0 0-4 0v2c-2 0-4.4 2.4-6 5l-4 7c-.5 1.2-1 2-1 4s1.8 5 4 5h28c2.2 0 4-3 4-5s-.4-2.7-1-4z"/><path fill="#FFF" d="M20 14.8c0 .5-.9.8-2 .8s-2-.3-2-.8c0-.4.9-.8 2-.8s2 .4 2 .8zm-4.9 0c0 .5-.9.8-2 .8s-2-.3-2-.8c0-.4.9-.8 2-.8s2 .4 2 .8zm9.9 0c0 .5-1 .8-2 .8s-2.1-.3-2.1-.8c0-.4.9-.8 2-.8s2 .4 2 .8zm-4.5 2.9c0 .7-1.1 1.2-2.5 1.2s-2.5-.5-2.5-1.2 1.1-1.2 2.5-1.2 2.5.5 2.5 1.2zm5.7 0c0 .7-1.1 1.2-2.5 1.2-1.3 0-2.4-.5-2.4-1.2s1-1.2 2.4-1.2 2.5.5 2.5 1.2zm-11.5 0c0 .7-1 1.2-2.4 1.2s-2.5-.5-2.5-1.2 1.1-1.2 2.5-1.2c1.3 0 2.4.5 2.4 1.2zm6.6 3.7c0 .9-1.5 1.6-3.3 1.6-1.8 0-3.3-.7-3.3-1.6 0-1 1.5-1.7 3.3-1.7 1.8 0 3.3.8 3.3 1.7zm7.3 0c0 .9-1.4 1.6-3.2 1.6-1.8 0-3.3-.7-3.3-1.6 0-1 1.5-1.7 3.3-1.7 1.8 0 3.2.8 3.2 1.7zm-14.7 0c0 .9-1.5 1.6-3.3 1.6-1.8 0-3.2-.7-3.2-1.6 0-1 1.4-1.7 3.2-1.7 1.8 0 3.3.8 3.3 1.7z"/></svg>